[Header]
FileType HTR
DataType HTRS
FileVersion 1
NumSegments 64
NumFrames 3
DataFrameRate 30
EulerRotationOrder ZYX
CalibrationUnits mm
RotationUnits Degrees
GlobalAxisofGravity Y
BoneLengthAxis Y
ScaleFactor 1.0
[SegmentNames&Hierarchy]
Hips	GLOBAL
Spine	Hips
Spine1	Spine
Spine2	Spine1
Neck	Spine2
Head	Neck
LeftEye	Head
RightEye	Head
LeftShoulder	Spine2
LeftArm	LeftShoulder
LeftForeArm	LeftArm
LeftHand	LeftForeArm
LeftHandThumb1	LeftHand
LeftHandThumb2	LeftHandThumb1
LeftHandThumb3	LeftHandThumb2
LeftHandThumb4	LeftHandThumb3
LeftHandIndex1	LeftHand
LeftHandIndex2	LeftHandIndex1
LeftHandIndex3	LeftHandIndex2
LeftHandIndex4	LeftHandIndex3
LeftHandMiddle1	LeftHand
LeftHandMiddle2	LeftHandMiddle1
LeftHandMiddle3	LeftHandMiddle2
LeftHandMiddle4	LeftHandMiddle3
LeftHandRing1	LeftHand
LeftHandRing2	LeftHandRing1
LeftHandRing3	LeftHandRing2
LeftHandRing4	LeftHandRing3
LeftHandPinky1	LeftHand
LeftHandPinky2	LeftHandPinky1
LeftHandPinky3	LeftHandPinky2
LeftHandPinky4	LeftHandPinky3
RightShoulder	Spine2
RightArm	RightShoulder
RightForeArm	RightArm
RightHand	RightForeArm
RightHandPinky1	RightHand
RightHandPinky2	RightHandPinky1
RightHandPinky3	RightHandPinky2
RightHandPinky4	RightHandPinky3
RightHandRing1	RightHand
RightHandRing2	RightHandRing1
RightHandRing3	RightHandRing2
RightHandRing4	RightHandRing3
RightHandMiddle1	RightHand
RightHandMiddle2	RightHandMiddle1
RightHandMiddle3	RightHandMiddle2
RightHandMiddle4	RightHandMiddle3
RightHandIndex1	RightHand
RightHandIndex2	RightHandIndex1
RightHandIndex3	RightHandIndex2
RightHandIndex4	RightHandIndex3
RightHandThumb1	RightHand
RightHandThumb2	RightHandThumb1
RightHandThumb3	RightHandThumb2
RightHandThumb4	RightHandThumb3
LeftUpLeg	Hips
LeftLeg	LeftUpLeg
LeftFoot	LeftLeg
LeftToeBase	LeftFoot
RightUpLeg	Hips
RightLeg	RightUpLeg
RightFoot	RightLeg
RightToeBase	RightFoot
[BasePosition]
Hips	0	0	0	0	0	0	1
Spine	0	0	0	0	0	0	1
Spine1	0	0	0	0	0	0	1
Spine2	0	0	0	0	0	0	1
Neck	0	0	0	0	0	0	1
Head	0	0	0	0	0	0	1
LeftEye	0	0	0	0	0	0	1
RightEye	0	0	0	0	0	0	1
LeftShoulder	0	0	0	0	0	0	1
LeftArm	0	0	0	0	0	0	1
LeftForeArm	0	0	0	0	0	0	1
LeftHand	0	0	0	0	0	0	1
LeftHandThumb1	0	0	0	0	0	0	1
LeftHandThumb2	0	0	0	0	0	0	1
LeftHandThumb3	0	0	0	0	0	0	1
LeftHandThumb4	0	0	0	0	0	0	1
LeftHandIndex1	0	0	0	0	0	0	1
LeftHandIndex2	0	0	0	0	0	0	1
LeftHandIndex3	0	0	0	0	0	0	1
LeftHandIndex4	0	0	0	0	0	0	1
LeftHandMiddle1	0	0	0	0	0	0	1
LeftHandMiddle2	0	0	0	0	0	0	1
LeftHandMiddle3	0	0	0	0	0	0	1
LeftHandMiddle4	0	0	0	0	0	0	1
LeftHandRing1	0	0	0	0	0	0	1
LeftHandRing2	0	0	0	0	0	0	1
LeftHandRing3	0	0	0	0	0	0	1
LeftHandRing4	0	0	0	0	0	0	1
LeftHandPinky1	0	0	0	0	0	0	1
LeftHandPinky2	0	0	0	0	0	0	1
LeftHandPinky3	0	0	0	0	0	0	1
LeftHandPinky4	0	0	0	0	0	0	1
RightShoulder	0	0	0	0	0	0	1
RightArm	0	0	0	0	0	0	1
RightForeArm	0	0	0	0	0	0	1
RightHand	0	0	0	0	0	0	1
RightHandPinky1	0	0	0	0	0	0	1
RightHandPinky2	0	0	0	0	0	0	1
RightHandPinky3	0	0	0	0	0	0	1
RightHandPinky4	0	0	0	0	0	0	1
RightHandRing1	0	0	0	0	0	0	1
RightHandRing2	0	0	0	0	0	0	1
RightHandRing3	0	0	0	0	0	0	1
RightHandRing4	0	0	0	0	0	0	1
RightHandMiddle1	0	0	0	0	0	0	1
RightHandMiddle2	0	0	0	0	0	0	1
RightHandMiddle3	0	0	0	0	0	0	1
RightHandMiddle4	0	0	0	0	0	0	1
RightHandIndex1	0	0	0	0	0	0	1
RightHandIndex2	0	0	0	0	0	0	1
RightHandIndex3	0	0	0	0	0	0	1
RightHandIndex4	0	0	0	0	0	0	1
RightHandThumb1	0	0	0	0	0	0	1
RightHandThumb2	0	0	0	0	0	0	1
RightHandThumb3	0	0	0	0	0	0	1
RightHandThumb4	0	0	0	0	0	0	1
LeftUpLeg	0	0	0	0	0	0	1
LeftLeg	0	0	0	0	0	0	1
LeftFoot	0	0	0	0	0	0	1
LeftToeBase	0	0	0	0	0	0	1
RightUpLeg	0	0	0	0	0	0	1
RightLeg	0	0	0	0	0	0	1
RightFoot	0	0	0	0	0	0	1
RightToeBase	0	0	0	0	0	0	1
[Hips]
21	32.78549576	1000.059326	1133.873901	1.776096225	6.532254696	3.366712332	1.0
22	29.01859474	989.25177	1188.784912	2.810920954	7.15965414	3.907536507	1.0
23	23.91091537	975.6665039	1247.158325	2.981669188	7.275189877	3.710716486	1.0
[Spine]
21	0	101.8159943	1.315000057	4.46051836	-7.345029831	-5.44175148	1.0
22	0	101.8159943	1.315000057	3.830043554	-7.240303516	-5.427271366	1.0
23	0	101.8159943	1.315000057	3.864111423	-6.742163181	-4.71824789	1.0
[Spine1]
21	0	100.8349991	-10.00800037	2.342363358	-6.758594513	2.937777996	1.0
22	0	100.8349991	-10.00800037	2.249558449	-7.542701244	2.973822355	1.0
23	0	100.8349991	-10.00800037	2.230502605	-8.004418373	2.906218529	1.0
[Spine2]
21	0	91	-13.73399925	2.109085321	-6.661603451	3.179277658	1.0
22	0	91	-13.73399925	2.042036295	-7.446264744	3.218526363	1.0
23	0	91	-13.73399925	2.04566741	-7.909265995	3.162981272	1.0
[Neck]
21	0	166.7169952	-25.16200066	0.1215109527	4.705580235	-2.160125971	1.0
22	0	166.7169952	-25.16200066	-0.1068094745	5.079646111	-2.419476748	1.0
23	0	166.7169952	-25.16200066	-0.4195977449	5.288327217	-2.394115925	1.0
[Head]
21	0	96.17900085	16.84999847	-3.687347651	10.34879303	-2.560421228	1.0
22	0	96.17900085	16.84999847	-4.226145744	10.56548691	-2.640933037	1.0
23	0	96.17900085	16.84999847	-4.72455883	10.58468533	-2.747523546	1.0
[LeftEye]
21	30.6760006	64.09500122	92.83599854	0	0	0	1.0
22	30.6760006	64.09500122	92.83599854	0	0	0	1.0
23	30.6760006	64.09500122	92.83599854	0	0	0	1.0
[RightEye]
21	-30.6760006	64.09500122	92.83499908	0	0	0	1.0
22	-30.6760006	64.09500122	92.83499908	0	0	0	1.0
23	-30.6760006	64.09500122	92.83499908	0	0	0	1.0
[LeftShoulder]
21	45.70400238	109.4599991	-26.28000069	2.857595205	-9.983161926	-14.2986536	1.0
22	45.70400238	109.4599991	-26.28000069	2.991721392	-10.55922985	-14.40034866	1.0
23	45.70400238	109.4599991	-26.28000069	2.979235649	-10.68259716	-14.11994171	1.0
[LeftArm]
21	105.923996	-5.24600029	-22.32099915	22.93217659	-21.85214424	-46.69215012	1.0
22	105.923996	-5.24600029	-22.32099915	23.25205231	-23.61325073	-43.29206467	1.0
23	105.923996	-5.24600029	-22.32099915	23.30869484	-24.8716507	-41.25201797	1.0
[LeftForeArm]
21	278.414978	-0.0009999999311	0	-1.412902839e-05	-52.42292404	-0.0001990784222	1.0
22	278.414978	-0.0009999999311	0	3.939379894e-06	-56.64703751	-0.0002110122587	1.0
23	278.414978	-0.0009999999311	0	1.297805557e-05	-58.46333313	-0.0002214645356	1.0
[LeftHand]
21	283.2879944	0	0	3.551420689	3.740705967	2.621439695	1.0
22	283.2879944	0	0	2.204644918	3.141998053	9.813655853	1.0
23	283.2879944	0	0	1.162152886	1.132980943	14.37801647	1.0
[LeftHandThumb1]
21	24.6609993	-15.75	26.8239994	5.839803696	2.504242897	11.148386	1.0
22	24.6609993	-15.75	26.8239994	5.839803696	2.504242897	11.148386	1.0
23	24.6609993	-15.75	26.8239994	5.839803696	2.504242897	11.148386	1.0
[LeftHandThumb2]
21	32.29800034	-18.64699936	18.64699936	1.30708313	9.194907188	5.892629147	1.0
22	32.29800034	-18.64699936	18.64699936	0.03827121854	7.870462418	5.809800148	1.0
23	32.29800034	-18.64699936	18.64699936	0.9687967896	8.230391502	5.475802422	1.0
[LeftHandThumb3]
21	26.52600098	-15.31499958	15.31499958	0.3285183609	-4.926388264	20.88067627	1.0
22	26.52600098	-15.31499958	15.31499958	0.5937243104	-4.312427521	20.78552246	1.0
23	26.52600098	-15.31499958	15.31499958	0.4527833164	-4.645062923	20.78028679	1.0
[LeftHandThumb4]
21	19.54599953	-11.28499985	11.28499985	0	0	0	1.0
22	19.54599953	-11.28499985	11.28499985	0	0	0	1.0
23	19.54599953	-11.28499985	11.28499985	0	0	0	1.0
[LeftHandIndex1]
21	91.09299469	-5.170999527	22.60099792	-0.8136663437	-3.016500235	-19.59630013	1.0
22	91.09299469	-5.170999527	22.60099792	-0.7510476112	-3.50305295	-18.06447983	1.0
23	91.09299469	-5.170999527	22.60099792	-0.7826574445	-2.995906353	-19.32301521	1.0
[LeftHandIndex2]
21	36.76399994	0	0	-0.1989020258	1.511676788	-14.99129677	1.0
22	36.76399994	0	0	-0.1982664913	1.509333849	-14.96749592	1.0
23	36.76399994	0	0	-0.1983505934	1.509631991	-14.97053814	1.0
[LeftHandIndex3]
21	28.83100128	0	0	-0.1989082247	1.511695981	-14.99131393	1.0
22	28.83100128	0	0	-0.1982991248	1.50933814	-14.96750736	1.0
23	28.83100128	0	0	-0.1983803362	1.509637356	-14.97054005	1.0
[LeftHandIndex4]
21	23.92700005	0	0	0	0	0	1.0
22	23.92700005	0	0	0	0	0	1.0
23	23.92700005	0	0	0	0	0	1.0
[LeftHandMiddle1]
21	95.33399963	0	0	-1.71726191	3.661544085	-27.82357597	1.0
22	95.33399963	0	0	-1.630448937	3.552866936	-26.78668213	1.0
23	95.33399963	0	0	-1.689469695	3.645688295	-27.4907608	1.0
[LeftHandMiddle2]
21	36.98199844	0	0	-0.1235740483	1.195477128	-11.80304623	1.0
22	36.98199844	0	0	-0.1241204515	1.198038816	-11.82861614	1.0
23	36.98199844	0	0	-0.1241324618	1.198162913	-11.82984543	1.0
[LeftHandMiddle3]
21	29.50900078	0	0	-0.1685335934	1.393391252	-13.79337692	1.0
22	29.50900078	0	0	-0.1691613048	1.395909667	-13.81893635	1.0
23	29.50900078	0	0	-0.1691967845	1.396033049	-13.82021999	1.0
[LeftHandMiddle4]
21	28.3390007	0	0	0	0	0	1.0
22	28.3390007	0	0	0	0	0	1.0
23	28.3390007	0	0	0	0	0	1.0
[LeftHandRing1]
21	91.04499817	-0.4390000105	-18.65100098	-1.872632504	6.52139616	-29.6480999	1.0
22	91.04499817	-0.4390000105	-18.65100098	-1.784650803	6.489404678	-28.62578964	1.0
23	91.04499817	-0.4390000105	-18.65100098	-1.849069715	6.486586094	-29.37077522	1.0
[LeftHandRing2]
21	31.54000092	0	0	-0.33512941	1.950312614	-19.49838257	1.0
22	31.54000092	0	0	-0.3341980278	1.947679043	-19.47075653	1.0
23	31.54000092	0	0	-0.3347119987	1.949129343	-19.48602295	1.0
[LeftHandRing3]
21	29.37700081	0	0	-0.4061520398	2.140240669	-21.48836327	1.0
22	29.37700081	0	0	-0.4051159918	2.137605667	-21.4606266	1.0
23	29.37700081	0	0	-0.4056946635	2.139067173	-21.4760685	1.0
[LeftHandRing4]
21	26.47500038	0	0	0	0	0	1.0
22	26.47500038	0	0	0	0	0	1.0
23	26.47500038	0	0	0	0	0	1.0
[LeftHandPinky1]
21	80.77799988	-4.887000084	-38.06099701	-2.243334532	4.933398247	-33.76329041	1.0
22	80.77799988	-4.887000084	-38.06099701	-2.191710234	5.059039116	-33.18722153	1.0
23	80.77799988	-4.887000084	-38.06099701	-2.20998168	4.806629658	-33.35989761	1.0
[LeftHandPinky2]
21	36	0	0	-0.2735064626	1.766795516	-17.59891319	1.0
22	36	0	0	-0.2727483809	1.76443553	-17.57444954	1.0
23	36	0	0	-0.2732111216	1.765851617	-17.58918381	1.0
[LeftHandPinky3]
21	21.14200211	0	0	-0.2735078335	1.766792536	-17.59882355	1.0
22	21.14200211	0	0	-0.2727661431	1.764408112	-17.57445526	1.0
23	21.14200211	0	0	-0.2732102871	1.765826344	-17.58892632	1.0
[LeftHandPinky4]
21	19.75699997	0	0	0	0	0	1.0
22	19.75699997	0	0	0	0	0	1.0
23	19.75699997	0	0	0	0	0	1.0
[RightShoulder]
21	-45.70000076	109.4620056	-26.28000069	1.436533928	3.391610146	14.0763073	1.0
22	-45.70000076	109.4620056	-26.28000069	1.234804392	2.550040007	13.7594347	1.0
23	-45.70000076	109.4620056	-26.28000069	1.112600803	1.996121764	13.76135159	1.0
[RightArm]
21	-105.9280014	-5.248000145	-22.32099915	18.21154594	-7.423150539	58.84770584	1.0
22	-105.9280014	-5.248000145	-22.32099915	17.43540955	-8.872190475	59.38601303	1.0
23	-105.9280014	-5.248000145	-22.32099915	16.79761696	-9.413663864	59.64893723	1.0
[RightForeArm]
21	-278.414978	0	0	5.962206728e-07	11.0343256	2.592973033e-06	1.0
22	-278.414978	0	0	-8.482927427e-08	10.95285416	4.064398581e-06	1.0
23	-278.414978	0	0	3.843727882e-06	10.49047089	1.186797454e-05	1.0
[RightHand]
21	-283.2879944	0	0.0009999999311	6.047642231	1.462048531	17.21699333	1.0
22	-283.2879944	0	0.0009999999311	5.132294178	-1.290079117	18.46797562	1.0
23	-283.2879944	0	0.0009999999311	4.448067188	-4.466698647	19.85240746	1.0
[RightHandPinky1]
21	-80.76699829	-4.885000229	-38.06000137	-1.548337817	-4.08178854	27.4065361	1.0
22	-80.76699829	-4.885000229	-38.06000137	-1.605142713	-3.839338779	27.62935066	1.0
23	-80.76699829	-4.885000229	-38.06000137	-1.575065851	-3.900856495	27.37945366	1.0
[RightHandPinky2]
21	-36	0	0.0009999999311	-0.5523915291	-2.195162058	28.26596832	1.0
22	-36	0	0.0009999999311	-0.5561159849	-2.20207715	28.36304665	1.0
23	-36	0	0.0009999999311	-0.5542271733	-2.198579073	28.31385803	1.0
[RightHandPinky3]
21	-21.14200211	0	0	-0.1699730009	-1.244338393	15.55612659	1.0
22	-21.14200211	0	0	-0.1719994992	-1.251591802	15.6491251	1.0
23	-21.14200211	0	0	-0.1709458083	-1.247841716	15.6010313	1.0
[RightHandPinky4]
21	-19.75699997	0	0	0	0	0	1.0
22	-19.75699997	0	0	0	0	0	1.0
23	-19.75699997	0	0	0	0	0	1.0
[RightHandRing1]
21	-91.03599548	-0.4390000105	-18.65100098	-1.200763464	-2.718711376	22.80071068	1.0
22	-91.03599548	-0.4390000105	-18.65100098	-1.21201849	-2.701555967	22.96587181	1.0
23	-91.03599548	-0.4390000105	-18.65100098	-1.200952768	-2.79454422	22.80174446	1.0
[RightHandRing2]
21	-31.54000092	0	0	-1.499795198	-3.413488388	47.42881393	1.0
22	-31.54000092	0	0	-1.500243425	-3.41388607	47.436203	1.0
23	-31.54000092	0	0	-1.499110103	-3.412853718	47.41719818	1.0
[RightHandRing3]
21	-29.37700081	0	0	-0.3732527494	-1.823061705	23.1401577	1.0
22	-29.37700081	0	0	-0.3734925091	-1.823610663	23.14746666	1.0
23	-29.37700081	0	0	-0.3728931546	-1.822214484	23.12869835	1.0
[RightHandRing4]
21	-26.47500038	0	0	0	0	0	1.0
22	-26.47500038	0	0	0	0	0	1.0
23	-26.47500038	0	0	0	0	0	1.0
[RightHandMiddle1]
21	-95.32500458	0	0	-0.9818063974	-0.2954552472	19.60039902	1.0
22	-95.32500458	0	0	-0.9837107658	-0.3960981667	19.62392616	1.0
23	-95.32500458	0	0	-0.9632840157	-0.5133854747	19.29991341	1.0
[RightHandMiddle2]
21	-36.98199844	0	0	-0.8493105173	-2.674797058	35.22626877	1.0
22	-36.98199844	0	0	-0.8512043357	-2.677480221	35.26683426	1.0
23	-36.98199844	0	0	-0.850818336	-2.676935673	35.25852585	1.0
[RightHandMiddle3]
21	-29.50900078	0	0	-0.2920495272	-1.622027636	20.4374733	1.0
22	-29.50900078	0	0	-0.2932060659	-1.625115156	20.47823334	1.0
23	-29.50900078	0	0	-0.2929818034	-1.624515414	20.47030449	1.0
[RightHandMiddle4]
21	-28.3390007	0	0.0009999999311	0	0	0	1.0
22	-28.3390007	0	0.0009999999311	0	0	0	1.0
23	-28.3390007	0	0.0009999999311	0	0	0	1.0
[RightHandIndex1]
21	-91.08300018	-5.167999744	22.60099792	-0.6265832782	4.004673481	18.63350868	1.0
22	-91.08300018	-5.167999744	22.60099792	-0.6606235504	4.000823021	19.03095627	1.0
23	-91.08300018	-5.167999744	22.60099792	-0.6334706545	3.9240098	18.98152161	1.0
[RightHandIndex2]
21	-36.76399994	0	0	-0.3978028893	-1.879430413	23.8999691	1.0
22	-36.76399994	0	0	-0.3971222937	-1.877898335	23.87919807	1.0
23	-36.76399994	0	0	-0.396176219	-1.875763297	23.85035133	1.0
[RightHandIndex3]
21	-28.83100128	0	0	-0.07973506302	-0.8565142155	10.63677025	1.0
22	-28.83100128	0	0	-0.07942710817	-0.8548653722	10.61601067	1.0
23	-28.83100128	0	0	-0.07900008559	-0.852571249	10.58718681	1.0
[RightHandIndex4]
21	-23.92700005	0	0	0	0	0	1.0
22	-23.92700005	0	0	0	0	0	1.0
23	-23.92700005	0	0	0	0	0	1.0
[RightHandThumb1]
21	-24.64799881	-15.72700024	26.82600021	12.78110313	-2.167885065	-4.410644054	1.0
22	-24.64799881	-15.72700024	26.82600021	12.78110313	-2.167885065	-4.410644054	1.0
23	-24.64799881	-15.72700024	26.82600021	12.78110313	-2.167885065	-4.410644054	1.0
[RightHandThumb2]
21	-32.29800034	-18.64699936	18.64699936	9.385054588	-19.41574478	-10.68791485	1.0
22	-32.29800034	-18.64699936	18.64699936	9.553132057	-19.05884171	-10.53046703	1.0
23	-32.29800034	-18.64699936	18.64699936	9.655858994	-18.90807152	-10.4770298	1.0
[RightHandThumb3]
21	-26.52600098	-15.31399918	15.31399918	-15.44646835	-4.940366268	-11.21619511	1.0
22	-26.52600098	-15.31399918	15.31399918	-15.44713974	-4.938769341	-11.21670246	1.0
23	-26.52600098	-15.31399918	15.31399918	-15.44682217	-4.939528465	-11.21647835	1.0
[RightHandThumb4]
21	-19.54599953	-11.28499985	11.28499985	0	0	0	1.0
22	-19.54599953	-11.28499985	11.28499985	0	0	0	1.0
23	-19.54599953	-11.28499985	11.28499985	0	0	0	1.0
[LeftUpLeg]
21	82.07800293	-67.51699829	-15.99599934	6.907847881	11.30461979	-2.93765974	1.0
22	82.07800293	-67.51699829	-15.99599934	12.06167507	12.271945	-1.951080322	1.0
23	82.07800293	-67.51699829	-15.99599934	16.94325066	13.36562252	-0.4018544257	1.0
[LeftLeg]
21	0	-443.7049866	2.845999956	11.29894733	-4.521742344	4.400684834	1.0
22	0	-443.7049866	2.845999956	6.199915886	-2.180757523	5.356736183	1.0
23	0	-443.7049866	2.845999956	3.531332016	-1.519213915	6.916733742	1.0
[LeftFoot]
21	0	-444.2789917	-29.8219986	-18.86455154	-13.31045341	0.7882499099	1.0
22	0	-444.2789917	-29.8219986	-19.04508591	-17.42175293	-0.1666652411	1.0
23	0	-444.2789917	-29.8219986	-18.70526695	-19.59308243	-1.4634583	1.0
[LeftToeBase]
21	0	-87.28699493	107.1060028	-7.036670685	2.524492402e-06	9.944402564e-07	1.0
22	0	-87.28699493	107.1060028	-7.834951878	6.825709988e-07	-2.780733155e-07	1.0
23	0	-87.28699493	107.1060028	-8.79789257	-2.125001856e-06	-2.140144488e-06	1.0
[RightUpLeg]
21	-82.07800293	-67.51699829	-15.99599934	-40.66215515	-8.274199486	-2.14325285	1.0
22	-82.07800293	-67.51699829	-15.99599934	-34.9295578	-8.771425247	-1.865682125	1.0
23	-82.07800293	-67.51699829	-15.99599934	-34.24855423	-8.512332916	-1.353235483	1.0
[RightLeg]
21	0	-443.7049866	2.861999989	23.71330452	-2.072123766	-5.678244114	1.0
22	0	-443.7049866	2.861999989	5.376782894	-1.666600704	-5.094702244	1.0
23	0	-443.7049866	2.861999989	4.119959354	-0.9037303329	-4.536920071	1.0
[RightFoot]
21	0	-444.2770081	-29.83799934	-7.665063381	0.1509094536	6.865875721	1.0
22	0	-444.2770081	-29.83799934	-3.22634697	-0.1251505762	7.950637341	1.0
23	0	-444.2770081	-29.83799934	-0.6521576643	-0.1862204671	4.897002697	1.0
[RightToeBase]
21	0	-87.28699493	107.1060028	-7.054139137	-7.621828786e-07	6.682333265e-08	1.0
22	0	-87.28699493	107.1060028	-6.290070534	6.109696642e-07	-2.150795666e-07	1.0
23	0	-87.28699493	107.1060028	-8.110592842	8.863940479e-07	5.179555274e-07	1.0
[EndOfFile]
